<svg width="24" height="24" viewBox="0 0 24 24" fill="none" xmlns="http://www.w3.org/2000/svg">
<g clip-path="url(#clip0)">
<path d="M20.1818 19.6365H3.8224C3.52146 19.6365 3.27749 19.8804 3.27693 20.1814L3.27478 21.7719C3.27427 22.3669 3.50541 22.9262 3.9257 23.347C4.3465 23.7684 4.90526 24.0001 5.50029 24.0001H18.5017C19.729 24.0001 20.7272 23.0019 20.7272 21.7746V20.1819C20.7272 19.8804 20.4833 19.6365 20.1818 19.6365Z" fill="#F88D02"/>
<path d="M18 2.18184C17.666 2.18184 17.323 2.21538 16.9597 2.28304C15.7117 0.827745 13.923 0 12 0C8.39067 0 5.45457 2.9361 5.45457 6.54546C5.45457 6.8464 5.21008 7.09093 4.90909 7.09093C4.60816 7.09093 4.36362 6.84645 4.36362 6.54546C4.36362 5.36452 4.63531 4.22192 5.17117 3.1497C5.26654 2.95901 5.24199 2.73048 5.10883 2.56429C4.97567 2.39917 4.75778 2.32563 4.55114 2.37626C1.87129 3.04476 0 5.43217 0 8.18182C0 10.4489 1.27841 12.5098 3.28551 13.5287L3.27963 17.9995C3.27963 18.1438 3.33665 18.2828 3.43892 18.3856C3.54171 18.4879 3.68024 18.5454 3.82511 18.5454H20.1818C20.4833 18.5454 20.7273 18.3015 20.7273 18V13.5207C22.727 12.4991 24.0001 10.4413 24.0001 8.18177C24 4.8734 21.3084 2.18184 18 2.18184ZM7.9826 15.1492C7.88084 15.2323 7.75836 15.2728 7.63691 15.2728C7.47926 15.2728 7.32263 15.2046 7.21453 15.0735C7.03448 14.8535 5.45457 12.8869 5.45457 11.4546C5.45457 11.1531 5.69854 10.9091 6.00004 10.9091C6.30154 10.9091 6.54551 11.1531 6.54551 11.4546C6.54551 12.244 7.47343 13.6684 8.05828 14.381C8.24891 14.6144 8.21537 14.9579 7.9826 15.1492ZM12.5454 14.7273C12.5454 15.0288 12.3015 15.2728 12 15.2728C11.6985 15.2728 11.4546 15.0288 11.4546 14.7273V11.4546C11.4546 11.1531 11.6985 10.9091 12 10.9091C12.3015 10.9091 12.5455 11.1531 12.5455 11.4546V14.7273H12.5454ZM16.7855 15.0735C16.6774 15.2046 16.5213 15.2728 16.3636 15.2728C16.2417 15.2728 16.1192 15.2323 16.018 15.1492C15.7852 14.9579 15.7511 14.6144 15.9418 14.3816C16.5267 13.6673 17.4545 12.2413 17.4545 11.4546C17.4545 11.1531 17.6985 10.9091 18 10.9091C18.3015 10.9091 18.5455 11.1531 18.5455 11.4546C18.5455 12.8869 16.9656 14.8535 16.7855 15.0735Z" fill="#F88D02"/>
</g>
<defs>
<clipPath id="clip0">
<rect width="24" height="24" fill="white"/>
</clipPath>
</defs>
</svg>
