<svg width="24" height="24" viewBox="0 0 24 24" fill="none" xmlns="http://www.w3.org/2000/svg">
<path d="M12 4.21875C7.70939 4.21875 4.21875 7.70939 4.21875 12C4.21875 16.2906 7.70939 19.7812 12 19.7812C16.2906 19.7812 19.7812 16.2906 19.7812 12C19.7812 7.70939 16.2906 4.21875 12 4.21875ZM11.2969 5.625H12.7031V7.03125H11.2969V5.625ZM7.03125 12.7031H5.625V11.2969H7.03125V12.7031ZM12.7031 18.375H11.2969V16.9688H12.7031V18.375ZM12.9944 13.9887L12 12.9944L11.0056 13.9887L10.0113 12.9944L11.0056 12L7.01161 8.00597L8.00597 7.01161L12 11.0056L16.0107 6.99497L17.005 7.98933L12.9944 12L13.9887 12.9944L12.9944 13.9887ZM16.9688 12.7031V11.2969H18.375V12.7031H16.9688Z" fill="white"/>
<path d="M12 0C5.37258 0 0 5.37258 0 12C0 18.6274 5.37258 24 12 24C18.6274 24 24 18.6274 24 12C24 5.37258 18.6274 0 12 0ZM12 21.1875C6.93398 21.1875 2.8125 17.066 2.8125 12C2.8125 6.93398 6.93398 2.8125 12 2.8125C17.066 2.8125 21.1875 6.93398 21.1875 12C21.1875 17.066 17.066 21.1875 12 21.1875Z" fill="white"/>
</svg>
